<mxfile host="app.diagrams.net" modified="2023-10-11T08:12:44.936Z" agent="Mozilla/5.0 (Macintosh; Intel Mac OS X 10_15_7) AppleWebKit/537.36 (KHTML, like Gecko) Chrome/117.0.0.0 Safari/537.36" etag="Hc3Ict65IHvSpHdYKLbN" version="22.0.4" type="github">
  <diagram name="第 1 页" id="7n2VtcaPrRIoB627k-tC">
    <mxGraphModel dx="1354" dy="1460" grid="0" gridSize="10" guides="1" tooltips="1" connect="1" arrows="1" fold="1" page="0" pageScale="1" pageWidth="827" pageHeight="1169" math="0" shadow="0">
      <root>
        <mxCell id="0" />
        <mxCell id="1" parent="0" />
        <mxCell id="h9LHjvq54i586LCXgM2c-1" value="Text" style="text;strokeColor=none;fillColor=none;html=1;align=center;verticalAlign=middle;whiteSpace=wrap;rounded=0;fontSize=16;" vertex="1" parent="1">
          <mxGeometry x="170" y="-333" width="60" height="30" as="geometry" />
        </mxCell>
        <mxCell id="h9LHjvq54i586LCXgM2c-2" value="" style="shape=table;startSize=0;container=1;collapsible=0;childLayout=tableLayout;fontSize=16;" vertex="1" parent="1">
          <mxGeometry x="-37" y="-486" width="180" height="100" as="geometry" />
        </mxCell>
        <mxCell id="h9LHjvq54i586LCXgM2c-3" value="" style="shape=tableRow;horizontal=0;startSize=0;swimlaneHead=0;swimlaneBody=0;strokeColor=inherit;top=0;left=0;bottom=0;right=0;collapsible=0;dropTarget=0;fillColor=none;points=[[0,0.5],[1,0.5]];portConstraint=eastwest;fontSize=16;" vertex="1" parent="h9LHjvq54i586LCXgM2c-2">
          <mxGeometry width="180" height="20" as="geometry" />
        </mxCell>
        <mxCell id="h9LHjvq54i586LCXgM2c-4" value="" style="shape=partialRectangle;html=1;whiteSpace=wrap;connectable=0;strokeColor=inherit;overflow=hidden;fillColor=none;top=0;left=0;bottom=0;right=0;pointerEvents=1;fontSize=16;" vertex="1" parent="h9LHjvq54i586LCXgM2c-3">
          <mxGeometry width="60" height="20" as="geometry">
            <mxRectangle width="60" height="20" as="alternateBounds" />
          </mxGeometry>
        </mxCell>
        <mxCell id="h9LHjvq54i586LCXgM2c-5" value="" style="shape=partialRectangle;html=1;whiteSpace=wrap;connectable=0;strokeColor=inherit;overflow=hidden;fillColor=none;top=0;left=0;bottom=0;right=0;pointerEvents=1;fontSize=16;" vertex="1" parent="h9LHjvq54i586LCXgM2c-3">
          <mxGeometry x="60" width="54" height="20" as="geometry">
            <mxRectangle width="54" height="20" as="alternateBounds" />
          </mxGeometry>
        </mxCell>
        <mxCell id="h9LHjvq54i586LCXgM2c-6" value="" style="shape=partialRectangle;html=1;whiteSpace=wrap;connectable=0;strokeColor=inherit;overflow=hidden;fillColor=none;top=0;left=0;bottom=0;right=0;pointerEvents=1;fontSize=16;" vertex="1" parent="h9LHjvq54i586LCXgM2c-3">
          <mxGeometry x="114" width="66" height="20" as="geometry">
            <mxRectangle width="66" height="20" as="alternateBounds" />
          </mxGeometry>
        </mxCell>
        <mxCell id="h9LHjvq54i586LCXgM2c-7" value="" style="shape=tableRow;horizontal=0;startSize=0;swimlaneHead=0;swimlaneBody=0;strokeColor=inherit;top=0;left=0;bottom=0;right=0;collapsible=0;dropTarget=0;fillColor=none;points=[[0,0.5],[1,0.5]];portConstraint=eastwest;fontSize=16;" vertex="1" parent="h9LHjvq54i586LCXgM2c-2">
          <mxGeometry y="20" width="180" height="40" as="geometry" />
        </mxCell>
        <mxCell id="h9LHjvq54i586LCXgM2c-8" value="" style="shape=partialRectangle;html=1;whiteSpace=wrap;connectable=0;strokeColor=inherit;overflow=hidden;fillColor=none;top=0;left=0;bottom=0;right=0;pointerEvents=1;fontSize=16;" vertex="1" parent="h9LHjvq54i586LCXgM2c-7">
          <mxGeometry width="60" height="40" as="geometry">
            <mxRectangle width="60" height="40" as="alternateBounds" />
          </mxGeometry>
        </mxCell>
        <mxCell id="h9LHjvq54i586LCXgM2c-9" value="" style="shape=partialRectangle;html=1;whiteSpace=wrap;connectable=0;strokeColor=inherit;overflow=hidden;fillColor=none;top=0;left=0;bottom=0;right=0;pointerEvents=1;fontSize=16;" vertex="1" parent="h9LHjvq54i586LCXgM2c-7">
          <mxGeometry x="60" width="54" height="40" as="geometry">
            <mxRectangle width="54" height="40" as="alternateBounds" />
          </mxGeometry>
        </mxCell>
        <mxCell id="h9LHjvq54i586LCXgM2c-10" value="" style="shape=partialRectangle;html=1;whiteSpace=wrap;connectable=0;strokeColor=inherit;overflow=hidden;fillColor=none;top=0;left=0;bottom=0;right=0;pointerEvents=1;fontSize=16;" vertex="1" parent="h9LHjvq54i586LCXgM2c-7">
          <mxGeometry x="114" width="66" height="40" as="geometry">
            <mxRectangle width="66" height="40" as="alternateBounds" />
          </mxGeometry>
        </mxCell>
        <mxCell id="h9LHjvq54i586LCXgM2c-11" value="" style="shape=tableRow;horizontal=0;startSize=0;swimlaneHead=0;swimlaneBody=0;strokeColor=inherit;top=0;left=0;bottom=0;right=0;collapsible=0;dropTarget=0;fillColor=none;points=[[0,0.5],[1,0.5]];portConstraint=eastwest;fontSize=16;" vertex="1" parent="h9LHjvq54i586LCXgM2c-2">
          <mxGeometry y="60" width="180" height="40" as="geometry" />
        </mxCell>
        <mxCell id="h9LHjvq54i586LCXgM2c-12" value="" style="shape=partialRectangle;html=1;whiteSpace=wrap;connectable=0;strokeColor=inherit;overflow=hidden;fillColor=none;top=0;left=0;bottom=0;right=0;pointerEvents=1;fontSize=16;" vertex="1" parent="h9LHjvq54i586LCXgM2c-11">
          <mxGeometry width="60" height="40" as="geometry">
            <mxRectangle width="60" height="40" as="alternateBounds" />
          </mxGeometry>
        </mxCell>
        <mxCell id="h9LHjvq54i586LCXgM2c-13" value="" style="shape=partialRectangle;html=1;whiteSpace=wrap;connectable=0;strokeColor=inherit;overflow=hidden;fillColor=none;top=0;left=0;bottom=0;right=0;pointerEvents=1;fontSize=16;" vertex="1" parent="h9LHjvq54i586LCXgM2c-11">
          <mxGeometry x="60" width="54" height="40" as="geometry">
            <mxRectangle width="54" height="40" as="alternateBounds" />
          </mxGeometry>
        </mxCell>
        <mxCell id="h9LHjvq54i586LCXgM2c-14" value="" style="shape=partialRectangle;html=1;whiteSpace=wrap;connectable=0;strokeColor=inherit;overflow=hidden;fillColor=none;top=0;left=0;bottom=0;right=0;pointerEvents=1;fontSize=16;" vertex="1" parent="h9LHjvq54i586LCXgM2c-11">
          <mxGeometry x="114" width="66" height="40" as="geometry">
            <mxRectangle width="66" height="40" as="alternateBounds" />
          </mxGeometry>
        </mxCell>
        <mxCell id="h9LHjvq54i586LCXgM2c-15" value="Text" style="text;strokeColor=none;fillColor=none;html=1;align=center;verticalAlign=middle;whiteSpace=wrap;rounded=0;fontSize=16;" vertex="1" parent="1">
          <mxGeometry x="170" y="-333" width="60" height="30" as="geometry" />
        </mxCell>
      </root>
    </mxGraphModel>
  </diagram>
</mxfile>
